<svg xmlns="http://www.w3.org/2000/svg" width="720" height="520" viewBox="0 0 720 520" role="img" aria-label="ocha-YTdl popup sample">
  <rect width="720" height="520" fill="#151515"/>
  <rect x="180" y="32" width="360" height="456" rx="8" fill="#0f0f0f" stroke="#303030"/>
  <g font-family="-apple-system, BlinkMacSystemFont, Segoe UI, sans-serif">
    <text x="204" y="66" fill="#ff2222" font-size="18" font-weight="700">ocha-YTdl</text>
    <text x="498" y="65" fill="#666" font-size="11" text-anchor="end">v0.3.4</text>
    <text x="204" y="94" fill="#999" font-size="12">Sample YouTube Shorts Video</text>
    <rect x="204" y="108" width="184" height="20" rx="3" fill="#0a2a0a"/>
    <text x="212" y="122" fill="#4caf50" font-size="10">シグネチャ: 復号OK</text>

    <rect x="204" y="142" width="244" height="31" rx="4" fill="#1a1a1a" stroke="#333"/>
    <text x="216" y="162" fill="#e8e8e8" font-size="12">1080p / 映像のみ / MP4 · ios</text>
    <rect x="456" y="142" width="52" height="31" rx="4" fill="#cc0000"/>
    <text x="482" y="162" fill="#fff" font-size="12" font-weight="700" text-anchor="middle">DL</text>

    <text x="204" y="198" fill="#666" font-size="10" font-weight="700" letter-spacing="1">動画 + 音声</text>
    <rect x="204" y="210" width="312" height="43" rx="5" fill="#1a1a1a" stroke="#2a2a2a"/>
    <text x="216" y="230" fill="#e8e8e8" font-size="13" font-weight="700">360p</text>
    <text x="216" y="245" fill="#777" font-size="10">MP4 · page</text>
    <rect x="438" y="221" width="42" height="21" rx="3" fill="#2a2a2a" stroke="#3a3a3a"/>
    <text x="459" y="235" fill="#aaa" font-size="10" text-anchor="middle">コピー</text>
    <rect x="486" y="221" width="30" height="21" rx="3" fill="#cc0000"/>
    <text x="501" y="235" fill="#fff" font-size="10" font-weight="700" text-anchor="middle">DL</text>

    <line x1="204" y1="274" x2="516" y2="274" stroke="#1e1e1e"/>
    <text x="204" y="296" fill="#666" font-size="10" font-weight="700" letter-spacing="1">映像のみ</text>
    <rect x="204" y="308" width="312" height="43" rx="5" fill="#1a1a1a" stroke="#2a2a2a"/>
    <text x="216" y="328" fill="#e8e8e8" font-size="13" font-weight="700">1080p</text>
    <text x="216" y="343" fill="#777" font-size="10">MP4 · 30fps · ios</text>
    <rect x="438" y="319" width="42" height="21" rx="3" fill="#2a2a2a" stroke="#3a3a3a"/>
    <text x="459" y="333" fill="#aaa" font-size="10" text-anchor="middle">コピー</text>
    <rect x="486" y="319" width="30" height="21" rx="3" fill="#cc0000"/>
    <text x="501" y="333" fill="#fff" font-size="10" font-weight="700" text-anchor="middle">DL</text>

    <rect x="204" y="356" width="312" height="43" rx="5" fill="#1a1a1a" stroke="#2a2a2a"/>
    <text x="216" y="376" fill="#e8e8e8" font-size="13" font-weight="700">720p</text>
    <text x="216" y="391" fill="#777" font-size="10">MP4 · 30fps · android</text>
    <rect x="438" y="367" width="42" height="21" rx="3" fill="#2a2a2a" stroke="#3a3a3a"/>
    <text x="459" y="381" fill="#aaa" font-size="10" text-anchor="middle">コピー</text>
    <rect x="486" y="367" width="30" height="21" rx="3" fill="#cc0000"/>
    <text x="501" y="381" fill="#fff" font-size="10" font-weight="700" text-anchor="middle">DL</text>

    <line x1="204" y1="420" x2="516" y2="420" stroke="#1e1e1e"/>
    <text x="204" y="442" fill="#666" font-size="10" font-weight="700" letter-spacing="1">音声のみ</text>
    <rect x="204" y="454" width="312" height="24" rx="5" fill="#1a1a1a" stroke="#2a2a2a"/>
    <text x="216" y="470" fill="#e8e8e8" font-size="12" font-weight="700">medium</text>
    <text x="326" y="470" fill="#777" font-size="10">M4A · ios</text>
  </g>
</svg>
